<?xml version="1.0" encoding="iso-8859-1"?>
<!-- Generator: Adobe Illustrator 17.1.0, SVG Export Plug-In . SVG Version: 6.00 Build 0)  -->
<!DOCTYPE svg PUBLIC "-//W3C//DTD SVG 1.1//EN" "http://www.w3.org/Graphics/SVG/1.1/DTD/svg11.dtd">
<svg version="1.1" id="Capa_1" xmlns="http://www.w3.org/2000/svg" xmlns:xlink="http://www.w3.org/1999/xlink" x="0px" y="0px"
	 viewBox="0 0 511.997 511.997" style="enable-background:new 0 0 511.997 511.997;" xml:space="preserve">
<g>
	<path d="M510.274,348.379l-47.995-215.978c-4.17-18.774-15.4-34.8-31.621-45.127c-16.228-10.331-35.503-13.717-54.277-9.537
		c-18.025,4.008-33.882,14.939-44.154,30.283H179.769c-10.272-15.343-26.128-26.274-44.15-30.282
		c-18.777-4.182-38.053-0.795-54.28,9.536c-16.221,10.327-27.45,26.354-31.621,45.126L1.723,348.379
		c-8.612,38.747,15.91,77.28,54.663,85.896c5.164,1.147,10.438,1.729,15.676,1.729c16.119,0,31.991-5.543,44.691-15.61
		c12.889-10.216,21.956-24.7,25.53-40.783l15.828-71.228c7.477,4.812,16.362,7.617,25.895,7.617
		c14.181,0,26.941-6.187,35.735-15.999h72.515c8.794,9.812,21.554,15.999,35.735,15.999c9.533,0,18.418-2.805,25.895-7.617
		l15.829,71.228c3.574,16.083,12.641,30.566,25.53,40.782c12.7,10.066,28.572,15.61,44.691,15.61c5.237,0,10.512-0.582,15.676-1.729
		C494.364,425.659,518.886,387.126,510.274,348.379z M216.002,124.02h80v23.983c0,8.822-7.178,16-16,16h-48c-8.822,0-16-7.178-16-16
		V124.02z M327.991,300.001c-17.643,0-31.996-14.353-31.996-31.996c0-17.643,14.354-31.996,31.996-31.996
		s31.996,14.353,31.996,31.996C359.987,285.648,345.634,300.001,327.991,300.001z M452.14,418.656
		c-4.026,0.896-8.132,1.349-12.204,1.349c-25.991,0-48.954-18.447-54.602-43.863l-17.305-77.872c-0.196-0.881-0.536-1.69-0.98-2.421
		c5.619-7.858,8.939-17.468,8.939-27.843c0-5.978-1.108-11.7-3.114-16.983c3.612,0.635,7.321,0.986,11.112,0.986
		c35.287,0,63.995-28.708,63.995-63.994c0-9.603-2.077-18.839-6.173-27.453c-0.894-1.879-1.893-3.738-2.969-5.525
		c-2.279-3.785-7.195-5.005-10.98-2.727c-3.785,2.279-5.006,7.195-2.727,10.98c0.807,1.341,1.557,2.735,2.227,4.144
		c3.067,6.45,4.622,13.374,4.622,20.581c0,26.464-21.53,47.994-47.995,47.994c-26.464,0-47.994-21.53-47.994-47.994
		c0-26.464,21.53-47.995,47.994-47.995c7.19,0,14.1,1.548,20.538,4.602c3.991,1.893,8.763,0.192,10.656-3.8
		c1.894-3.992,0.192-8.763-3.8-10.657c-8.598-4.077-17.814-6.145-27.395-6.145c-35.287,0-63.994,28.708-63.994,63.995
		c0,11.658,3.149,22.588,8.618,32.012c-0.207-0.003-0.411-0.016-0.618-0.016c-26.465,0-47.996,21.53-47.996,47.996
		c0,5.608,0.976,10.991,2.752,15.998H229.25c1.776-5.007,2.752-10.389,2.752-15.998c0-6.685-1.35-13.157-4.013-19.237
		c-1.772-4.047-6.491-5.891-10.537-4.119c-4.047,1.772-5.892,6.49-4.119,10.538c1.771,4.044,2.669,8.357,2.669,12.818
		c0,17.643-14.353,31.996-31.996,31.996s-31.996-14.353-31.996-31.996c0-17.643,14.354-31.996,31.996-31.996
		c4.458,0,8.767,0.896,12.809,2.665c4.05,1.771,8.765-0.076,10.536-4.123c1.771-4.048-0.075-8.765-4.123-10.536
		c-6.077-2.658-12.543-4.006-19.222-4.006c-0.207,0-0.411,0.013-0.618,0.016c5.469-9.424,8.618-20.354,8.618-32.012
		c0-9.602-2.077-18.837-6.173-27.453c-0.895-1.881-1.894-3.74-2.97-5.526c-2.28-3.785-7.196-5.005-10.981-2.725
		c-3.784,2.28-5.004,7.196-2.724,10.981c0.807,1.339,1.556,2.733,2.226,4.142c3.067,6.451,4.623,13.375,4.623,20.581
		c0,26.464-21.53,47.994-47.995,47.994c-26.464,0-47.994-21.53-47.994-47.994c0-26.464,21.53-47.995,47.994-47.995
		c7.189,0,14.1,1.548,20.538,4.602c3.993,1.893,8.763,0.191,10.657-3.801c1.893-3.992,0.192-8.763-3.8-10.656
		c-8.598-4.077-17.815-6.145-27.395-6.145c-35.287,0-63.994,28.708-63.994,63.995c0,35.286,28.708,63.994,63.994,63.994
		c3.791,0,7.5-0.351,11.112-0.986c-2.006,5.284-3.114,11.005-3.114,16.983c0,10.26,3.247,19.771,8.752,27.581
		c-0.241,0.518-0.434,1.065-0.563,1.646l-17.536,78.91c-5.648,25.416-28.612,43.863-54.602,43.863
		c-4.072,0-8.179-0.453-12.204-1.348c-30.141-6.702-49.213-36.671-42.516-66.807l47.996-215.979
		c3.244-14.603,11.978-27.067,24.594-35.1c12.618-8.034,27.607-10.668,42.211-7.415c15.417,3.428,28.297,12.9,36.266,26.671
		c1.43,2.472,4.069,3.993,6.924,3.993h24.669v23.983c0,17.645,14.355,32,32,32h48c17.645,0,32-14.355,32-32V124.02h24.662
		c2.855,0,5.494-1.521,6.924-3.993c7.969-13.771,20.849-23.243,36.269-26.672c14.599-3.251,29.589-0.618,42.208,7.416
		c12.616,8.032,21.35,20.497,24.594,35.1l47.995,215.979C501.353,381.985,482.28,411.955,452.14,418.656z"/>
	<path d="M184.006,252.006c-8.822,0-16,7.177-16,15.999s7.177,16,16,16c8.822,0,15.999-7.178,15.999-16
		S192.828,252.006,184.006,252.006z"/>
	<path d="M327.991,252.006c-8.822,0-15.999,7.177-15.999,15.999s7.177,16,15.999,16s15.999-7.178,15.999-16
		S336.813,252.006,327.991,252.006z"/>
	<path d="M415.982,180.014h-8c-4.418,0-8,3.582-8,8c0,4.418,3.582,8,8,8h8c4.418,0,8-3.582,8-8
		C423.982,183.595,420.401,180.014,415.982,180.014z"/>
	<path d="M359.988,180.014h-7.999c-4.418,0-8,3.582-8,8c0,4.418,3.582,8,8,8h7.999c4.418,0,8-3.582,8-8
		C367.988,183.595,364.406,180.014,359.988,180.014z"/>
	<path d="M383.983,148.016c-4.418,0-8,3.582-8,8v7.999c0,4.418,3.582,8,8,8s8-3.582,8-8v-7.999
		C391.983,151.599,388.401,148.016,383.983,148.016z"/>
	<path d="M383.983,204.011c-4.418,0-8,3.582-8,8v8c0,4.418,3.582,8,8,8s8-3.582,8-8v-8
		C391.983,207.593,388.401,204.011,383.983,204.011z"/>
	<path d="M160.008,180.014h-7.999c-4.418,0-8,3.582-8,8c0,4.418,3.582,8,8,8h7.999c4.418,0,8-3.582,8-8
		C168.008,183.595,164.426,180.014,160.008,180.014z"/>
	<path d="M104.014,180.014h-7.999c-4.418,0-8,3.582-8,8c0,4.418,3.582,8,8,8h7.999c4.418,0,8-3.582,8-8
		C112.014,183.595,108.432,180.014,104.014,180.014z"/>
	<path d="M128.009,148.016c-4.418,0-8,3.582-8,8v7.999c0,4.418,3.582,8,8,8s8-3.582,8-8v-7.999
		C136.009,151.599,132.427,148.016,128.009,148.016z"/>
	<path d="M128.009,204.011c-4.418,0-8,3.582-8,8v8c0,4.418,3.582,8,8,8s8-3.582,8-8v-8
		C136.009,207.593,132.427,204.011,128.009,204.011z"/>
</g>
<g>
</g>
<g>
</g>
<g>
</g>
<g>
</g>
<g>
</g>
<g>
</g>
<g>
</g>
<g>
</g>
<g>
</g>
<g>
</g>
<g>
</g>
<g>
</g>
<g>
</g>
<g>
</g>
<g>
</g>
</svg>
