<svg id="Capa_1" enable-background="new 0 0 512 512" height="512" viewBox="0 0 512 512" width="512" xmlns="http://www.w3.org/2000/svg"><g><path d="m443.631 61.605c.86-1.22 1.369-2.705 1.369-4.311v-36.341c0-11.554-9.399-20.953-20.953-20.953h-336.094c-11.554 0-20.953 9.399-20.953 20.953v36.341c0 1.627.524 3.129 1.404 4.358.027.039.046.075.077.116l35.275 47.446c-.099.485-.151.986-.151 1.5v94.163c0 4.142 3.358 7.5 7.5 7.5s7.5-3.358 7.5-7.5v-90.847h274.79v214.23h-185.258v-13.972c3.777-.997 7.257-2.728 10.282-5.03.015 0 .029.002.044.002h138.163c9.798 0 17.769-7.971 17.769-17.769v-140.692c0-9.798-7.971-17.769-17.769-17.769h-201.252c-9.798 0-17.769 7.971-17.769 17.769v140.691c0 9.798 7.971 17.769 17.769 17.769h27.484c3.024 2.301 6.503 4.031 10.279 5.028v13.972h-74.532v-93.382c0-4.142-3.358-7.5-7.5-7.5s-7.5 3.358-7.5 7.5v98.181l-34.883 42.155c-.001.001-.002.002-.003.004-.05.061-.094.127-.143.19-.023.032-.052.066-.073.098-.94 1.253-1.503 2.804-1.503 4.49v46.619c0 12.573 10.229 22.802 22.802 22.802h13.803v39.63c0 12.657 10.297 22.954 22.954 22.954h258.882c12.657 0 22.954-10.297 22.954-22.954v-39.63h13.803c12.573 0 22.802-10.229 22.802-22.802v-46.619c0-1.677-.557-3.221-1.488-4.47-.051-.075-.111-.153-.174-.233-.02-.024-.037-.05-.057-.074-.001-.001-.002-.003-.003-.004l-34.883-42.155v-222.979c0-.331-.029-.654-.07-.973l35.194-47.337c.043-.058.075-.11.112-.165zm-242.994 238.654c-7.951 0-14.419-6.468-14.419-14.419s6.468-14.419 14.419-14.419 14.419 6.468 14.419 14.419-6.468 14.419-14.419 14.419zm-48.032-8.769v-140.691c0-1.527 1.242-2.769 2.769-2.769h201.252c1.527 0 2.769 1.242 2.769 2.769v140.691c0 1.527-1.242 2.769-2.769 2.769h-127.804c.799-2.669 1.234-5.493 1.234-8.419 0-16.222-13.197-29.419-29.419-29.419s-29.419 13.197-29.419 29.419c0 2.925.435 5.75 1.234 8.419h-17.078c-1.527 0-2.769-1.242-2.769-2.769zm244.52-192.46h-282.251l-25.452-34.236h333.156zm-315.125-78.077c0-3.283 2.67-5.953 5.953-5.953h336.094c3.283 0 5.953 2.67 5.953 5.953v28.841h-348zm311.395 468.093c0 4.386-3.568 7.954-7.954 7.954h-258.882c-4.386 0-7.954-3.568-7.954-7.954v-39.63h274.79zm36.605-62.432c0 4.302-3.5 7.802-7.802 7.802h-204.097v-11.721c0-4.142-3.358-7.5-7.5-7.5s-7.5 3.358-7.5 7.5v11.721h-19v-11.721c0-4.142-3.358-7.5-7.5-7.5s-7.5 3.358-7.5 7.5v11.721h-16.496v-11.721c0-4.142-3.358-7.5-7.5-7.5s-7.5 3.358-7.5 7.5v11.721h-47.803c-4.302 0-7.802-3.5-7.802-7.802v-39.119h157.787c4.142 0 7.5-3.358 7.5-7.5s-3.358-7.5-7.5-7.5h-149.346l24.192-29.235h78.504v14.618c0 4.142 3.358 7.5 7.5 7.5s7.5-3.358 7.5-7.5v-14.618h189.229l24.192 29.235h-151.771c-4.142 0-7.5 3.358-7.5 7.5s3.358 7.5 7.5 7.5h160.213z"/><path d="m252.644 192.561h68.974c4.142 0 7.5-3.358 7.5-7.5s-3.358-7.5-7.5-7.5h-68.974c-4.142 0-7.5 3.358-7.5 7.5s3.357 7.5 7.5 7.5z"/><path d="m252.644 224.214h68.974c4.142 0 7.5-3.358 7.5-7.5s-3.358-7.5-7.5-7.5h-68.974c-4.142 0-7.5 3.358-7.5 7.5s3.357 7.5 7.5 7.5z"/><path d="m252.644 255.867h68.974c4.142 0 7.5-3.358 7.5-7.5s-3.358-7.5-7.5-7.5h-68.974c-4.142 0-7.5 3.358-7.5 7.5s3.357 7.5 7.5 7.5z"/><path d="m366.895 418.455h17.087c4.142 0 7.5-3.358 7.5-7.5s-3.358-7.5-7.5-7.5h-17.087c-4.142 0-7.5 3.358-7.5 7.5s3.358 7.5 7.5 7.5z"/></g></svg>