<svg id="Capa_1" enable-background="new 0 0 512 512" height="512" viewBox="0 0 512 512" width="512" xmlns="http://www.w3.org/2000/svg"><path d="m505.41 494.899-32.567-99.067c-.072-.266-.157-.527-.257-.781l-12.792-38.914c-.085-.323-.185-.639-.31-.943l-13.32-40.521c-3.511-10.858-10.527-12.479-14.397-12.479h-55.994c12.407-18.926 23.347-38.876 31.022-60.612 11.152-31.547 15.382-64.383 12.233-94.958-3.092-30.013-13.265-58.009-29.419-80.961-29.628-42.095-77.067-65.414-133.645-65.663-31.175.145-59.42 7.171-83.949 20.886-23.366 13.064-42.24 31.499-56.097 54.792-2.118 3.56-.949 8.163 2.611 10.28s8.162.948 10.28-2.611c26.065-43.815 71.247-68.088 127.156-68.347 51.518.227 94.624 21.286 121.377 59.297 30.295 43.042 36.018 103.709 15.31 162.289-14.209 40.238-40.934 74.956-66.779 108.531-2.049 2.662-4.128 5.365-6.21 8.081-.043.052-.081.107-.123.16-2.97 3.874-5.948 7.779-8.87 11.668-2.355 2.729-4.729 5.487-7.117 8.262-5.552 6.451-11.187 12.993-16.854 19.48-.063.072-.129.142-.19.217-7.561 8.653-15.18 17.206-22.751 25.291l-.085.091c-2.943 3.145-5.969 6.379-7.673 7.733-1.704-1.354-4.73-4.588-7.673-7.733l-.083-.088c-13.424-14.361-27.036-30.17-40.199-45.459-2.253-2.617-4.493-5.218-6.716-7.794-5.012-6.669-10.192-13.399-15.204-19.909-9.968-12.949-20.064-26.07-29.525-39.611-.003-.004-.006-.008-.009-.013-15.066-21.564-28.518-44.194-37.245-68.909-14.378-40.7-16.34-81.572-5.674-118.198 1.158-3.977-1.126-8.14-5.104-9.298-3.977-1.16-8.14 1.127-9.298 5.104-11.55 39.659-9.499 83.709 5.931 127.387 7.676 21.737 18.616 41.689 31.023 60.615h-55.966c-4.697 0-11.009 2.157-14.414 12.445l-27.573 83.877c-.013.036-.023.073-.036.11l-31.643 96.259c-1.199 3.621-.554 7.542 1.77 10.758 2.79 3.862 7.751 6.357 12.64 6.357h234.998c4.142 0 7.5-3.358 7.5-7.5s-3.358-7.5-7.5-7.5h-64.056l-80.366-91.9 104.635.051c6.998 7.977 14.046 15.854 21.075 23.374l.085.091c7.792 8.327 12.085 12.915 18.625 12.915 6.54 0 10.834-4.588 18.626-12.915l.083-.089c7.023-7.5 14.057-15.359 21.035-23.315l164.421.082 30.148 91.706h-199.382c-4.142 0-7.5 3.358-7.5 7.5s3.358 7.5 7.5 7.5h200.095c4.874 0 9.826-2.502 12.618-6.376 2.322-3.222 2.963-7.142 1.768-10.725zm-425.321-175.561c.372-1.123.695-1.78.91-2.144h65.475c8.013 11.3 16.396 22.291 24.743 33.145l-101.303-.046zm-31.77 96.645 70.869 81.017h-97.502zm53.381-25.887c-.004 0-.012 0-.018 0-4.624.004-8.386 2.232-10.067 5.959-1.663 3.688-.863 8.053 2.063 11.364l78.338 89.581h-32.9l-85.355-97.576 11.22-34.132 117.759.053c2.266 2.966 4.526 5.939 6.745 8.894.102.135.208.268.32.396 2.273 2.634 4.564 5.294 6.87 7.972 2.153 2.501 4.322 5.017 6.497 7.538zm329.318-72.901c.21.363.525 1.017.885 2.129l10.262 31.218-101.505-.046c8.386-10.904 16.812-21.946 24.863-33.301zm-122.252 73.023c2.06-2.389 4.115-4.775 6.156-7.146 2.439-2.835 4.864-5.651 7.269-8.438.111-.129.217-.261.319-.396 2.183-2.906 4.405-5.83 6.634-8.748l117.953.053 8.135 24.747z"/><path d="m363.403 166.527c0-59.207-48.182-107.375-107.405-107.375s-107.405 48.168-107.405 107.375 48.182 107.375 107.405 107.375 107.405-48.168 107.405-107.375zm-199.809 0c0-50.936 41.453-92.375 92.405-92.375s92.405 41.439 92.405 92.375-41.453 92.375-92.405 92.375-92.405-41.439-92.405-92.375z"/></svg>