<?xml version="1.0" encoding="iso-8859-1"?>
<!-- Generator: Adobe Illustrator 17.1.0, SVG Export Plug-In . SVG Version: 6.00 Build 0)  -->
<!DOCTYPE svg PUBLIC "-//W3C//DTD SVG 1.1//EN" "http://www.w3.org/Graphics/SVG/1.1/DTD/svg11.dtd">
<svg version="1.1" id="Capa_1" xmlns="http://www.w3.org/2000/svg" xmlns:xlink="http://www.w3.org/1999/xlink" x="0px" y="0px"
	 viewBox="0 0 512 512" style="enable-background:new 0 0 512 512;" xml:space="preserve">
<g>
	<path d="M287.965,0h-63.93C153.437,0,96,57.437,96,128.035V352c0,88.224,71.776,160,160,160s160-71.776,160-160V128.035
		C416,57.437,358.563,0,287.965,0z M232,16h48v328c0,13.234-10.766,24-24,24s-24-10.766-24-24V16z M400,352
		c0,79.402-64.598,144-144,144s-144-64.598-144-144V128.035c0-21.065,5.848-40.789,16-57.64V88c0,4.418,3.582,8,8,8s8-3.582,8-8
		V49.723c18.596-19.001,43.878-31.43,72-33.432v284.652c-42.873-16.395-72-57.992-72-104.629V120c0-4.418-3.582-8-8-8s-8,3.582-8,8
		v76.314c0,55.343,35.89,104.484,88,121.609V344c0,22.056,17.944,40,40,40s40-17.944,40-40v-26.067
		c24.288-8.007,46.05-23.446,61.688-43.868C374.901,251.584,384,224.698,384,196.314V120c0-4.418-3.582-8-8-8s-8,3.582-8,8v76.314
		c0,46.516-29.164,88.237-72,104.638V16.291c28.122,2.003,53.404,14.431,72,33.432V88c0,4.418,3.582,8,8,8s8-3.582,8-8V70.395
		c10.152,16.851,16,36.575,16,57.64V352z"/>
	<path d="M256,200c8.822,0,16-7.178,16-16s-7.178-16-16-16s-16,7.178-16,16S247.178,200,256,200z"/>
	<path d="M256,248c8.822,0,16-7.178,16-16s-7.178-16-16-16s-16,7.178-16,16S247.178,248,256,248z"/>
	<path d="M256,144c8.822,0,16-7.178,16-16V88c0-8.822-7.178-16-16-16s-16,7.178-16,16v40C240,136.822,247.178,144,256,144z M256,88
		l0.01,40c0,0-0.003,0-0.01,0V88z"/>
</g>
<g>
</g>
<g>
</g>
<g>
</g>
<g>
</g>
<g>
</g>
<g>
</g>
<g>
</g>
<g>
</g>
<g>
</g>
<g>
</g>
<g>
</g>
<g>
</g>
<g>
</g>
<g>
</g>
<g>
</g>
</svg>
